<svg width="18" height="18" viewBox="0 0 18 18" fill="none" xmlns="http://www.w3.org/2000/svg">
<path fill-rule="evenodd" clip-rule="evenodd" d="M18 14.5652C17.8117 16.4933 16.1679 18 14.1904 18C12.9295 18 11.9074 16.9779 11.9074 15.717V11.9148C11.9074 10.654 12.9295 9.6318 14.1904 9.6318C15.0529 9.6318 15.8486 9.9185 16.4872 10.4018V9C16.4872 4.86496 13.135 1.51285 9 1.51285C4.86496 1.51285 1.51285 4.86496 1.51285 9V10.4018C2.15142 9.9185 2.94711 9.6318 3.8096 9.6318C5.07047 9.6318 6.09261 10.654 6.09261 11.9148V15.717C6.09261 16.9779 5.07047 18 3.8096 18C1.83207 18 0.18831 16.4933 0 14.5652V9C0 4.02944 4.02944 0 9 0C13.9706 0 18 4.02944 18 9V14.5652ZM1.51285 13.4414C1.51285 12.173 2.54114 11.1447 3.8096 11.1447C4.23495 11.1447 4.57976 11.4895 4.57976 11.9148V15.717C4.57976 16.1423 4.23495 16.4872 3.8096 16.4872C2.54114 16.4872 1.51285 15.4589 1.51285 14.1904V13.4414ZM13.4202 11.9148C13.4202 11.4895 13.765 11.1447 14.1904 11.1447C15.4589 11.1447 16.4872 12.173 16.4872 13.4414V14.1904C16.4872 15.4589 15.4589 16.4872 14.1904 16.4872C13.765 16.4872 13.4202 16.1423 13.4202 15.717V11.9148Z" fill="#C0C0C0"/>
</svg>
