<svg width="35" height="35" viewBox="0 0 35 35" fill="none" xmlns="http://www.w3.org/2000/svg">
<circle cx="17.5" cy="17.5" r="17.5" fill="#202020"/>
<path d="M13.3892 22.2073C13.5494 22.2812 13.6939 22.3947 14.1508 22.7743L15.7214 24.0787C16.172 24.453 16.7459 24.6587 17.3393 24.6587C18.7124 24.6587 19.8255 23.5801 19.8255 22.2497V21.8197L9.49453 13.811C9.37282 13.8941 9.25863 13.9891 9.1523 14.099C9.08007 14.1737 9.01234 14.2523 8.94945 14.3345C8.64994 14.7261 8.5238 15.1682 8.46509 15.6676C8.40903 16.1445 8.40904 16.7349 8.40906 17.4527V17.5243C8.40904 18.242 8.40903 18.8325 8.46509 19.3094C8.5238 19.8087 8.64994 20.2508 8.94945 20.6424C9.01234 20.7247 9.08007 20.8033 9.1523 20.8779C9.49629 21.2336 9.9226 21.4329 10.4192 21.5782C10.8934 21.7169 11.4929 21.8226 12.2216 21.9509L12.4548 21.992C13.0469 22.0964 13.2289 22.1334 13.3892 22.2073Z" fill="white"/>
<path d="M9.11879 12.0638L8.60805 11.6679C8.30649 11.4341 8.25696 11.0063 8.49892 10.7132C8.73988 10.4214 9.17806 10.3746 9.47845 10.6075L12.5285 12.9719C13.0624 12.8773 13.2358 12.8404 13.3891 12.7696C13.5494 12.6957 13.6938 12.5822 14.1508 12.2026L15.7214 10.8982C16.172 10.5239 16.7459 10.3182 17.3393 10.3182C18.7124 10.3182 19.8255 11.3968 19.8255 12.7273V18.6286L21.0667 19.5908C21.133 19.3995 21.2861 19.2392 21.4962 19.1673C22.2121 18.922 22.7217 18.2612 22.7217 17.4884C22.7217 16.7156 22.2121 16.0548 21.4962 15.8096C21.1337 15.6854 20.941 15.2982 21.0705 14.9433C21.1996 14.5894 21.5985 14.4064 21.9602 14.5302C23.2149 14.96 24.1174 16.1203 24.1174 17.4884C24.1174 18.8041 23.2828 19.9276 22.1028 20.394L23.3738 21.3793C24.5264 20.4507 25.2587 19.0516 25.2587 17.4884C25.2587 15.0693 23.504 13.0435 21.1569 12.5469C20.7817 12.4675 20.5408 12.107 20.6237 11.7391C20.7064 11.3719 21.0792 11.1422 21.4539 11.2215C24.4262 11.8503 26.6544 14.4153 26.6544 17.4884C26.6544 19.373 25.816 21.0664 24.483 22.2393L26.3918 23.7188C26.6933 23.9526 26.7429 24.3804 26.5009 24.6735C26.3403 24.8679 26.0923 24.9536 25.8558 24.9203L9.43952 12.1942C9.34364 12.1199 9.23234 12.0769 9.11879 12.0638Z" fill="white"/>
</svg>
