<svg width="35" height="36" viewBox="0 0 35 36" fill="none" xmlns="http://www.w3.org/2000/svg">
<circle cx="17.5" cy="18" r="17.5" fill="#202020"/>
<path d="M13.816 23.8975C13.3133 23.474 13.1544 23.3473 12.9781 23.2649C12.8019 23.1824 12.6017 23.1411 11.9503 23.0247L11.6938 22.9789C10.8922 22.8356 10.2327 22.7178 9.71112 22.563C9.1649 22.4009 8.69597 22.1785 8.31757 21.7817C8.23812 21.6984 8.16361 21.6107 8.09443 21.5189C7.76497 21.082 7.62622 20.5888 7.56164 20.0316C7.49997 19.4995 7.49999 18.8408 7.5 18.04V17.9601C7.49999 17.1593 7.49997 16.5005 7.56164 15.9684C7.62622 15.4112 7.76497 14.918 8.09443 14.4811C8.16361 14.3893 8.23812 14.3016 8.31757 14.2183C8.69597 13.8215 9.16491 13.5991 9.71112 13.437C10.2328 13.2822 10.8922 13.1644 11.6938 13.0211L11.9503 12.9753C12.6017 12.8589 12.8019 12.8176 12.9781 12.7351C13.1544 12.6527 13.3133 12.526 13.816 12.1025L15.5436 10.6471C16.0392 10.2295 16.6705 10 17.3234 10C18.8337 10 20.0582 11.2034 20.0582 12.6879V23.3121C20.0582 24.7966 18.8337 26 17.3234 26C16.6705 26 16.0392 25.7705 15.5436 25.3529L13.816 23.8975Z" fill="white"/>
<path d="M20.9122 11.6414C21.0023 11.2364 21.4091 10.9816 21.8193 11.0694C25.0667 11.7651 27.5 14.6021 27.5 17.9999C27.5 21.3977 25.0667 24.2347 21.8193 24.9304C21.4091 25.0182 21.0023 24.7634 20.9122 24.3584C20.822 23.953 21.084 23.5544 21.4946 23.4664C24.0579 22.9173 25.9753 20.6768 25.9753 17.9999C25.9753 15.323 24.0579 13.0825 21.4946 12.5334C21.084 12.4454 20.822 12.0468 20.9122 11.6414Z" fill="white"/>
<path d="M21.4002 15.1855C21.5409 14.795 21.9766 14.5918 22.3725 14.7291C23.7435 15.2045 24.7287 16.4878 24.7287 17.9999C24.7287 19.5119 23.7435 20.7952 22.3725 21.2707C21.9766 21.408 21.5409 21.2048 21.4002 20.8142C21.2593 20.4231 21.4687 19.9952 21.8652 19.8577C22.6468 19.5867 23.2041 18.8557 23.2041 17.9999C23.2041 17.144 22.6468 16.4131 21.8652 16.142C21.4687 16.0045 21.2593 15.5767 21.4002 15.1855Z" fill="white"/>
</svg>
