<svg width="50" height="50" viewBox="0 0 50 50" fill="none" xmlns="http://www.w3.org/2000/svg">
<g clip-path="url(#clip0_482_129)">
<path d="M25.0001 48.2143C37.8211 48.2143 48.2143 37.8211 48.2143 25C48.2143 12.1791 37.8211 1.78571 25.0001 1.78571C12.1792 1.78571 1.78577 12.1791 1.78577 25C1.78577 37.8211 12.1792 48.2143 25.0001 48.2143Z" fill="#393939"/>
<path d="M25.0001 48.2143C37.8211 48.2143 48.2143 37.8211 48.2143 25C48.2143 12.1791 37.8211 1.78571 25.0001 1.78571C12.1792 1.78571 1.78577 12.1791 1.78577 25C1.78577 37.8211 12.1792 48.2143 25.0001 48.2143Z" stroke="#880000" stroke-width="3" stroke-linecap="round" stroke-linejoin="round"/>
<path d="M25 14.2857V35.7143" stroke="#880000" stroke-width="3" stroke-linecap="round" stroke-linejoin="round"/>
<path d="M14.2858 25H35.7143" stroke="#880000" stroke-width="3" stroke-linecap="round" stroke-linejoin="round"/>
</g>
<defs>
<clipPath id="clip0_482_129">
<rect width="50" height="50" fill="white"/>
</clipPath>
</defs>
</svg>
