<svg width="50" height="50" viewBox="0 0 50 50" fill="none" xmlns="http://www.w3.org/2000/svg">
<path d="M12.5003 39.5833C12.5003 41.875 14.3753 43.75 16.667 43.75H33.3337C35.6253 43.75 37.5003 41.875 37.5003 39.5833V18.75C37.5003 16.4583 35.6253 14.5833 33.3337 14.5833H16.667C14.3753 14.5833 12.5003 16.4583 12.5003 18.75V39.5833ZM37.5003 8.33333H32.292L30.8128 6.85417C30.4378 6.47917 29.8962 6.25 29.3545 6.25H20.6462C20.1045 6.25 19.5628 6.47917 19.1878 6.85417L17.7087 8.33333H12.5003C11.3545 8.33333 10.417 9.27083 10.417 10.4167C10.417 11.5625 11.3545 12.5 12.5003 12.5H37.5003C38.6462 12.5 39.5837 11.5625 39.5837 10.4167C39.5837 9.27083 38.6462 8.33333 37.5003 8.33333Z" fill="white"/>
</svg>
