<svg width="43" height="44" viewBox="0 0 43 44" fill="none" xmlns="http://www.w3.org/2000/svg">
<rect width="42.8571" height="43.2857" rx="21.4286" fill="#393939"/>
<path fill-rule="evenodd" clip-rule="evenodd" d="M14.7766 26.7747V25.6879C14.7766 25.1822 14.3725 24.7708 13.8751 24.7708C13.3777 24.7708 12.9736 25.1822 12.9736 25.6879V29.8747H17.1081C17.6054 29.8747 18.0096 29.4633 18.0096 28.9576C18.0096 28.4519 17.6054 28.0436 17.1081 28.0436H16.0822L19.4084 24.6797C19.7504 24.3217 19.7504 23.7406 19.4084 23.3825C19.0354 23.0276 18.4758 23.0276 18.1339 23.3856L14.7766 26.7747ZM25.9365 15.4769L22.6103 18.8408C22.2683 19.1988 22.2683 19.7767 22.6103 20.1348C22.9833 20.4929 23.5429 20.4897 23.8848 20.1317L27.2421 16.7426V17.8326C27.2421 18.3382 27.6462 18.7465 28.1436 18.7465C28.6409 18.7465 29.0451 18.3382 29.0451 17.8326V13.6426H24.9106C24.4133 13.6426 24.0091 14.054 24.0091 14.5597C24.0091 15.0654 24.4133 15.4769 24.9106 15.4769H25.9365Z" fill="white"/>
</svg>
