<svg width="26" height="22" viewBox="0 0 26 22" fill="none" xmlns="http://www.w3.org/2000/svg">
<path fill-rule="evenodd" clip-rule="evenodd" d="M24.3777 0.409193C24.5585 0.558557 24.7081 0.742078 24.818 0.949277C24.9279 1.15647 24.9959 1.38329 25.0181 1.61677C25.0403 1.85025 25.0164 2.08582 24.9475 2.31003C24.8787 2.53423 24.7664 2.74269 24.617 2.92348L10.2598 20.2985L10.2545 20.3021C9.9281 20.6945 9.51832 21.0093 9.05494 21.2233C8.59157 21.4374 8.08629 21.5454 7.57589 21.5396C7.05785 21.5333 6.54796 21.4098 6.0844 21.1785C5.62083 20.9472 5.21562 20.614 4.8991 20.2038L4.89732 20.2003L0.400888 14.4217C0.250751 14.2373 0.138961 14.0247 0.0720788 13.7965C0.00519696 13.5683 -0.0154296 13.329 0.0114095 13.0928C0.0382486 12.8565 0.112013 12.6279 0.228373 12.4205C0.344734 12.2131 0.501347 12.0311 0.689021 11.885C0.876695 11.739 1.09165 11.6319 1.32127 11.57C1.5509 11.5082 1.79056 11.4928 2.0262 11.5248C2.26184 11.5569 2.48871 11.6356 2.69349 11.7565C2.89828 11.8774 3.07686 12.038 3.21875 12.2288L7.61874 17.8842L21.8616 0.648478C22.011 0.467655 22.1945 0.318027 22.4017 0.208138C22.6089 0.0982493 22.8357 0.030253 23.0692 0.00803257C23.3027 -0.0141878 23.5382 0.00980289 23.7624 0.0786346C23.9866 0.147466 24.1951 0.259791 24.3759 0.409193H24.3777Z" fill="white"/>
</svg>
