<svg width="50" height="50" viewBox="0 0 50 50" fill="none" xmlns="http://www.w3.org/2000/svg">
<g clip-path="url(#clip0_276_211)">
<mask id="mask0_276_211" style="mask-type:luminance" maskUnits="userSpaceOnUse" x="0" y="0" width="50" height="50">
<path d="M0 0H50V50H0V0Z" fill="white"/>
</mask>
<g mask="url(#mask0_276_211)">
<path fill-rule="evenodd" clip-rule="evenodd" d="M15.8125 31.0624C14.9343 30.1831 13.7428 29.6885 12.5 29.6875H6.25C5.8356 29.6875 5.43817 29.5228 5.14515 29.2298C4.85212 28.9368 4.6875 28.5394 4.6875 28.125V21.8749C4.6875 21.4605 4.85212 21.0631 5.14515 20.7701C5.43817 20.4771 5.8356 20.3124 6.25 20.3124H12.5C13.7428 20.3114 14.9343 19.8168 15.8125 18.9374L23.5719 11.1812C23.6892 11.0645 23.8384 10.9852 24.0007 10.9532C24.1631 10.9213 24.3312 10.9381 24.484 11.0016C24.6368 11.0652 24.7673 11.1725 24.8592 11.3101C24.951 11.4478 25 11.6095 25 11.7749V38.2249C25 38.3904 24.951 38.5521 24.8592 38.6898C24.7673 38.8274 24.6368 38.9347 24.484 38.9983C24.3312 39.0618 24.1631 39.0786 24.0007 39.0467C23.8384 39.0147 23.6892 38.9354 23.5719 38.8187L15.8125 31.0624ZM6.25 15.6249H12.5L20.2563 7.8687C21.0289 7.09622 22.0133 6.57018 23.0849 6.35708C24.1565 6.14399 25.2673 6.2534 26.2767 6.67149C27.2861 7.08958 28.1489 7.79757 28.756 8.70596C29.3631 9.61435 29.6873 10.6824 29.6875 11.7749V38.2249C29.6873 39.3175 29.3631 40.3855 28.756 41.2939C28.1489 42.2023 27.2861 42.9103 26.2767 43.3284C25.2673 43.7465 24.1565 43.8559 23.0849 43.6428C22.0133 43.4297 21.0289 42.9037 20.2563 42.1312L12.5 34.3749H6.25C4.5924 34.3749 3.00269 33.7165 1.83058 32.5444C0.65848 31.3723 0 29.7826 0 28.125V21.8749C0 20.2173 0.65848 18.6276 1.83058 17.4555C3.00269 16.2834 4.5924 15.6249 6.25 15.6249ZM44.2562 40.9468C43.4281 41.9437 41.9344 41.9343 41.0188 41.0218C40.1063 40.1062 40.1188 38.6281 40.9219 37.6156C43.7717 34.0289 45.3197 29.581 45.3125 25C45.3197 20.4189 43.7717 15.971 40.9219 12.3843C40.1188 11.3718 40.1063 9.8937 41.0188 8.97807C41.9344 8.06557 43.4281 8.05932 44.2562 9.05307C47.977 13.5333 50.0095 19.1762 50 25C50 31.0625 47.8438 36.6187 44.2562 40.9468ZM37.575 34.275C36.8063 35.3156 35.3063 35.3062 34.3906 34.3906C33.475 33.4749 33.5031 32.0031 34.2031 30.9125C35.3385 29.1497 35.9408 27.0967 35.9375 25C35.9375 22.8218 35.3 20.7906 34.2031 19.0874C33.5031 17.9999 33.475 16.5249 34.3906 15.6093C35.3063 14.6937 36.8062 14.6843 37.5781 15.7249C39.4906 18.3187 40.625 21.5312 40.625 25C40.6303 28.3389 39.5609 31.5908 37.575 34.275Z" fill="#FFDFDF"/>
</g>
</g>
<defs>
<clipPath id="clip0_276_211">
<rect width="50" height="50" fill="white"/>
</clipPath>
</defs>
</svg>
