<svg width="7" height="25" viewBox="0 0 7 25" fill="none" xmlns="http://www.w3.org/2000/svg">
<path d="M0.468994 21.3705C0.468994 23.0273 1.81214 24.3705 3.46899 24.3705V24.3705C5.12585 24.3705 6.46899 23.0273 6.46899 21.3705V21.3705C6.46899 19.7136 5.12585 18.3705 3.46899 18.3705V18.3705C1.81214 18.3705 0.468994 19.7136 0.468994 21.3705V21.3705ZM0.468994 12.3705C0.468994 14.0273 1.81214 15.3705 3.46899 15.3705V15.3705C5.12585 15.3705 6.46899 14.0273 6.46899 12.3705V12.3705C6.46899 10.7136 5.12585 9.37048 3.46899 9.37048V9.37048C1.81214 9.37048 0.468994 10.7136 0.468994 12.3705V12.3705ZM0.468994 3.37048C0.468994 5.02734 1.81214 6.37048 3.46899 6.37048V6.37048C5.12585 6.37048 6.46899 5.02734 6.46899 3.37048V3.37048C6.46899 1.71363 5.12585 0.370483 3.46899 0.370483V0.370483C1.81214 0.370483 0.468994 1.71363 0.468994 3.37048V3.37048Z" fill="#A0A0A0"/>
</svg>
