<svg width="20" height="18" viewBox="0 0 20 18" fill="none" xmlns="http://www.w3.org/2000/svg">
<path fill-rule="evenodd" clip-rule="evenodd" d="M4.5122 1.8077C2.85688 2.44413 1.53846 4.02066 1.53846 6.10947C1.53846 7.76178 2.28329 9.3458 3.47608 10.8749C4.6691 12.4044 6.26102 13.8165 7.85113 15.1178C8.49862 15.6477 8.93109 15.9999 9.29134 16.2276C9.63403 16.4443 9.832 16.4953 10 16.4953C10.168 16.4953 10.366 16.4443 10.7087 16.2276C11.0689 15.9999 11.5014 15.6477 12.1489 15.1178C13.739 13.8165 15.3309 12.4044 16.5239 10.8749C17.7167 9.3458 18.4615 7.76178 18.4615 6.10947C18.4615 4.02066 17.1431 2.44413 15.4878 1.8077C13.8475 1.17705 11.9178 1.48026 10.611 3.15139C10.4655 3.33752 10.2396 3.4467 10 3.4467C9.76042 3.4467 9.53452 3.33752 9.38898 3.15139C8.08223 1.48026 6.15246 1.17705 4.5122 1.8077ZM10 1.56094C8.25986 -0.101921 5.91428 -0.348131 3.94934 0.407349C1.75851 1.24968 0 3.34818 0 6.10947C0 8.21775 0.950832 10.1183 2.25293 11.7876C3.55481 13.4566 5.25702 14.9568 6.86386 16.2718L6.90027 16.3016C7.50171 16.7938 8.0067 17.2071 8.45616 17.4913C8.93222 17.7922 9.423 18 10 18C10.577 18 11.0678 17.7922 11.5438 17.4913C11.9933 17.2071 12.4983 16.7938 13.0997 16.3016L13.1361 16.2718C14.743 14.9568 16.4452 13.4566 17.7471 11.7876C19.0492 10.1183 20 8.21775 20 6.10947C20 3.34818 18.2415 1.24968 16.0507 0.407349C14.0857 -0.348131 11.7401 -0.101921 10 1.56094Z" fill="#C0C0C0"/>
</svg>
