<svg width="32" height="32" viewBox="0 0 32 32" fill="none" xmlns="http://www.w3.org/2000/svg">
<path d="M15.9999 18.6667C17.4727 18.6667 18.6666 17.4728 18.6666 16C18.6666 14.5272 17.4727 13.3333 15.9999 13.3333C14.5272 13.3333 13.3333 14.5272 13.3333 16C13.3333 17.4728 14.5272 18.6667 15.9999 18.6667Z" stroke="white" stroke-width="2" stroke-linecap="round" stroke-linejoin="round"/>
<path d="M23.9999 14.6667C25.4727 14.6667 26.6666 13.4728 26.6666 12C26.6666 10.5272 25.4727 9.33334 23.9999 9.33334C22.5272 9.33334 21.3333 10.5272 21.3333 12C21.3333 13.4728 22.5272 14.6667 23.9999 14.6667Z" stroke="white" stroke-width="2" stroke-linecap="round" stroke-linejoin="round"/>
<path d="M20.424 4.84133C18.1648 3.94634 15.6871 3.75835 13.3187 4.30223C10.9502 4.8461 8.80276 6.09622 7.16032 7.88719C5.51788 9.67816 4.45789 11.9256 4.12057 14.3321C3.78326 16.7386 4.18452 19.1909 5.27128 21.3644C6.35803 23.5379 8.07906 25.3302 10.2067 26.5043C12.3343 27.6784 14.7682 28.1788 17.1865 27.9395C19.6047 27.7001 21.8933 26.7322 23.7494 25.1638C25.6056 23.5954 26.9418 21.5004 27.5814 19.156M26.6667 12V2.66667L29.3334 5.33333" stroke="white" stroke-width="2" stroke-linecap="round" stroke-linejoin="round"/>
</svg>
