<svg width="32" height="32" viewBox="0 0 32 32" fill="none" xmlns="http://www.w3.org/2000/svg">
<path d="M14.6667 5.33333C16.0812 5.33333 17.4377 5.89523 18.4379 6.89543C19.4381 7.89562 20 9.25218 20 10.6667C20 12.0812 19.4381 13.4377 18.4379 14.4379C17.4377 15.4381 16.0812 16 14.6667 16C13.2522 16 11.8956 15.4381 10.8954 14.4379C9.89524 13.4377 9.33333 12.0812 9.33333 10.6667C9.33333 9.25218 9.89524 7.89562 10.8954 6.89543C11.8956 5.89523 13.2522 5.33333 14.6667 5.33333ZM14.6667 8C13.9594 8 13.2811 8.28095 12.781 8.78105C12.281 9.28114 12 9.95942 12 10.6667C12 11.3739 12.281 12.0522 12.781 12.5523C13.2811 13.0524 13.9594 13.3333 14.6667 13.3333C15.3739 13.3333 16.0522 13.0524 16.5523 12.5523C17.0524 12.0522 17.3333 11.3739 17.3333 10.6667C17.3333 9.95942 17.0524 9.28114 16.5523 8.78105C16.0522 8.28095 15.3739 8 14.6667 8ZM14.6667 17.3333C16.1333 17.3333 18.2133 17.64 20.1467 18.2533C19.3333 18.76 18.6667 19.4667 18.1467 20.3067C17.0533 20.04 15.8533 19.8667 14.6667 19.8667C10.7067 19.8667 6.53333 21.8133 6.53333 22.6667V24.1333H17.3867C17.5067 25.0667 17.84 25.92 18.3467 26.6667H4V22.6667C4 19.12 11.1067 17.3333 14.6667 17.3333ZM24.6667 13.3333H29.3333V16H26.6667V23.3333C26.6667 24.2174 26.3155 25.0652 25.6904 25.6904C25.0652 26.3155 24.2174 26.6667 23.3333 26.6667C22.4493 26.6667 21.6014 26.3155 20.9763 25.6904C20.3512 25.0652 20 24.2174 20 23.3333C20 22.4493 20.3512 21.6014 20.9763 20.9763C21.6014 20.3512 22.4493 20 23.3333 20C23.8133 20 24.2533 20.0933 24.6667 20.28V13.3333Z" fill="white"/>
</svg>
