<svg width="22" height="22" viewBox="0 0 22 22" fill="none" xmlns="http://www.w3.org/2000/svg">
<path fill-rule="evenodd" clip-rule="evenodd" d="M11.7221 0.228789C11.2899 -0.0762632 10.7125 -0.0762632 10.2803 0.228789L1.05829 6.73846C0.394665 7.2069 0 7.96857 0 8.78088V19.6052C0 21.1452 1.42133 22.0024 2.64303 22.0024H19.3594C20.5811 22.0024 22.0024 21.1452 22.0024 19.6052V8.78088C22.0024 7.96857 21.6077 7.2069 20.9441 6.73846L11.7221 0.228789ZM2.5 8.78088L11.0012 2.78005L19.5024 8.78088V19.4773C19.4701 19.4902 19.4225 19.5024 19.3594 19.5024H15.9541V12.8247C15.9541 12.1344 15.3944 11.5747 14.7041 11.5747H7.2981C6.60774 11.5747 6.0481 12.1344 6.0481 12.8247V19.5024H2.64303C2.57995 19.5024 2.53232 19.4902 2.5 19.4773L2.5 8.78088ZM8.5481 19.3995V14.0747H13.4541V19.3995H8.5481Z" fill="#D9D9D9"/>
</svg>
