<svg width="35" height="35" viewBox="0 0 35 35" fill="none" xmlns="http://www.w3.org/2000/svg">
<g clip-path="url(#clip0_607_299)">
<rect x="35" y="35" width="35" height="35" rx="17.5" transform="rotate(-180 35 35)" fill="#202020"/>
<path d="M17.5 35C12.8587 35 8.40752 33.1563 5.12563 29.8744C1.84374 26.5925 0 22.1413 0 17.5C0 12.8587 1.84374 8.40752 5.12563 5.12563C8.40752 1.84374 12.8587 0 17.5 0C22.1413 0 26.5925 1.84374 29.8744 5.12563C33.1563 8.40752 35 12.8587 35 17.5C35 22.1413 33.1563 26.5925 29.8744 29.8744C26.5925 33.1563 22.1413 35 17.5 35ZM17.5 3.28125C13.729 3.28125 10.1124 4.77929 7.44583 7.44583C4.77929 10.1124 3.28125 13.729 3.28125 17.5C3.28125 21.271 4.77929 24.8876 7.44583 27.5542C10.1124 30.2207 13.729 31.7187 17.5 31.7187C21.271 31.7188 24.8876 30.2207 27.5542 27.5542C30.2207 24.8876 31.7188 21.271 31.7188 17.5C31.7188 13.729 30.2207 10.1124 27.5542 7.44583C24.8876 4.77929 21.271 3.28125 17.5 3.28125Z" fill="#202020"/>
<path d="M15.3125 17.5L24.0625 24.0625V10.9375L15.3125 17.5ZM10.9375 24.0625H15.3125L15.3125 10.9375H10.9375L10.9375 24.0625Z" fill="white"/>
</g>
<defs>
<clipPath id="clip0_607_299">
<rect x="35" y="35" width="35" height="35" rx="17.5" transform="rotate(-180 35 35)" fill="white"/>
</clipPath>
</defs>
</svg>
