<svg width="40" height="40" viewBox="0 0 40 40" fill="none" xmlns="http://www.w3.org/2000/svg">
<circle cx="20" cy="20" r="20" fill="#880000"/>
<path fill-rule="evenodd" clip-rule="evenodd" d="M11.8879 19.3039C11.4108 18.8789 11.3679 18.1468 11.792 17.6687L19.1361 9.38876C19.3555 9.14149 19.6699 9 20 9C20.3301 9 20.6444 9.14149 20.8639 9.38876L28.208 17.6687C28.6321 18.1468 28.5892 18.8789 28.1121 19.3039C27.635 19.7289 26.9045 19.6858 26.4804 19.2077L21.1558 13.2048V29.478C21.1558 30.1177 20.6383 30.6363 20 30.6363C19.3617 30.6363 18.8442 30.1177 18.8442 29.478V13.2048L13.5197 19.2077C13.0956 19.6858 12.365 19.7289 11.8879 19.3039Z" fill="white"/>
</svg>
