<svg width="35" height="35" viewBox="0 0 35 35" fill="none" xmlns="http://www.w3.org/2000/svg">
<g clip-path="url(#clip0_771_358)">
<path d="M3.61957 0.480845C1.84273 -0.136395 0.207505 1.53675 0.886651 3.29813C2.51729 7.527 4.50062 11.7219 5.43585 13.6449C5.82274 14.4361 6.50036 15.0471 7.32709 15.3506L13.131 17.5003L7.32716 19.6506C6.50051 19.9539 5.82289 20.5646 5.43585 21.3555C4.50062 23.2785 2.51802 27.4734 0.886651 31.7024C0.207505 33.4638 1.84273 35.1361 3.61957 34.5196C9.58969 32.4496 22.1852 27.5585 33.0279 19.8866C34.6859 18.7277 34.6859 16.2728 33.0279 15.1139C22.1852 7.44191 9.58969 2.55161 3.61957 0.480845Z" fill="white"/>
</g>
<defs>
<clipPath id="clip0_771_358">
<rect width="35" height="35" fill="white"/>
</clipPath>
</defs>
</svg>
